<svg width="144" height="147" viewBox="0 0 144 147" fill="none" xmlns="http://www.w3.org/2000/svg">
<path fill-rule="evenodd" clip-rule="evenodd" d="M49.5114 22.3428C52.0113 23.9085 54.5001 25.7732 56.9258 27.9666C53.5301 22.2692 49.3625 16.7967 44.3239 12.1936C35.874 4.46747 24.6715 0.476562 13.2273 0.476562C5.08432 0.476562 0.609863 5.94914 0.609863 12.0649C0.63229 14.7455 1.44414 17.36 2.94396 19.5818L12.406 33.9073V33.918L14.2659 36.7496H14.2829L22.4585 49.1486L29.9598 60.4951C29.9598 60.4951 29.9598 60.5122 29.9753 60.5122L31.9908 63.5703C32.0639 63.686 32.138 63.8006 32.2132 63.9141L63.5345 111.34C64.4566 112.741 65.7137 113.89 67.1919 114.683C68.67 115.475 70.3226 115.887 71.9998 115.88C73.6744 115.885 75.3239 115.474 76.7992 114.681C78.2746 113.889 79.5293 112.742 80.4497 111.343L111.786 63.9172L111.852 63.8196C116.906 56.0625 117.082 43.2513 106.089 40.5313C100.021 39.0109 83.0736 43.2281 75.8792 59.1297C75.6859 59.5337 75.5087 59.9362 75.3475 60.3371L75.284 60.4827L75.2515 60.5788C81.6121 59.5343 87.2464 55.9069 87.89 55.4925L87.934 55.4643L71.9998 83.6719L56.0486 55.4612L56.1039 55.4963C56.7996 55.9403 62.4212 59.528 68.7467 60.5757L68.7141 60.4796L68.6986 60.4316L68.6831 60.4145L68.6552 60.3466C68.4864 59.9352 68.3173 59.5232 68.119 59.1266C67.8937 58.611 67.6525 58.1125 67.3952 57.631C67.2015 57.2435 66.9922 56.8746 66.783 56.5197C66.5876 56.1391 66.373 55.7687 66.1398 55.41C65.8655 54.959 65.588 54.539 65.2858 54.105C64.9836 53.6711 64.6783 53.2371 64.3559 52.8186C63.8739 52.1909 63.3748 51.5788 62.8432 50.9991L62.8107 50.9666C62.5209 50.638 62.2357 50.328 61.9257 50.018C59.9375 47.97 57.6909 46.1897 55.2427 44.7221C54.5824 44.3362 53.9222 43.9658 53.2635 43.6279C52.4576 43.225 51.6527 42.8546 50.8488 42.5167C50.4503 42.3442 50.0446 42.19 49.6518 42.0407L49.6517 42.0407L49.6516 42.0406C49.5327 41.9954 49.4149 41.9507 49.2989 41.906C44.6152 40.2477 40.3655 39.9021 37.9028 40.522C37.1057 40.7138 36.3276 40.9773 35.578 41.3093C31.6343 43.079 29.6002 46.446 29.005 50.2654C29.5999 46.4439 31.6344 43.0726 35.5796 41.2969C36.3293 40.9649 37.1074 40.7014 37.9044 40.5096C40.3672 39.8974 44.6169 40.2353 49.3006 41.8936C49.3982 41.9309 49.4969 41.9682 49.5962 42.0057C50.0097 42.1621 50.4356 42.3231 50.8505 42.5043C51.6543 42.8422 52.4592 43.2126 53.2652 43.6155C53.9239 43.9534 54.5841 44.3238 55.2444 44.7097C57.6969 46.1765 59.9477 47.9568 61.9398 50.0056C62.2318 50.2977 62.5097 50.6053 62.7869 50.9123L62.8248 50.9542L62.8573 50.9867C63.3889 51.5663 63.888 52.1863 64.37 52.8062C64.6892 53.2247 65.0101 53.6571 65.2999 54.0926L65.3409 54.1542C65.3661 54.192 65.3914 54.2296 65.4166 54.2672C65.4456 54.3106 65.4747 54.3538 65.5037 54.397L65.5038 54.3971C65.7249 54.7264 65.9439 55.0525 66.1539 55.3976C66.387 55.7563 66.6017 56.1267 66.7971 56.5073C67.0063 56.8622 67.2155 57.2311 67.4093 57.6186C67.8864 58.5257 68.3163 59.4568 68.6972 60.4083L68.7127 60.4254C67.7626 53.2945 64.7698 42.6391 59.2818 32.1946C58.5409 30.778 57.752 29.3552 56.9151 27.9603C54.4929 25.7699 52.0078 23.9072 49.5114 22.3428ZM14.8216 20.1304C14.8623 20.0864 14.9034 20.043 14.9447 20.0002C14.972 19.9672 14.9998 19.9348 15.0282 19.9028C14.9583 19.9777 14.8895 20.0536 14.8216 20.1304ZM15.1935 19.7295C15.2227 19.7009 15.2524 19.6728 15.2826 19.6453C15.3173 19.6078 15.3526 19.5708 15.3883 19.5343C15.3226 19.5986 15.2576 19.6637 15.1935 19.7295ZM15.761 19.186C15.7676 19.1808 15.7742 19.1759 15.7809 19.171C15.7971 19.159 15.8134 19.147 15.8297 19.1307C16.0064 18.9758 16.2001 18.8084 16.3923 18.6658C16.4326 18.6332 16.4768 18.6011 16.5209 18.5689L16.521 18.5689C16.5651 18.5367 16.6093 18.5046 16.6496 18.472C16.8913 18.2954 17.1486 18.1187 17.4059 17.9575C17.4394 17.9431 17.4702 17.9231 17.4971 17.8985C16.873 18.2812 16.2931 18.7105 15.761 19.186ZM17.5559 17.8626C17.8133 17.7164 18.0846 17.5624 18.356 17.4274C18.6064 17.2881 18.8652 17.1644 19.1309 17.057C19.3832 16.9362 19.6419 16.8291 19.9058 16.7362C20.0825 16.6711 20.2608 16.6075 20.4374 16.558C20.5525 16.512 20.6686 16.4692 20.7858 16.4295C19.6123 16.7938 18.5309 17.2719 17.5559 17.8626ZM21.3683 16.26C21.3851 16.256 21.4018 16.2519 21.4185 16.248C21.4417 16.2412 21.4648 16.2345 21.488 16.2279C21.448 16.2385 21.4081 16.2492 21.3683 16.26ZM21.9971 16.1014C22.1044 16.0783 22.2123 16.0574 22.3205 16.0388C22.6991 15.9522 23.0853 15.8804 23.4788 15.8167C22.9722 15.8942 22.478 15.9891 21.9971 16.1014ZM87.0742 27.9666C91.5286 23.939 96.1954 21.0193 100.754 19.025C96.1967 21.0197 91.5325 23.9396 87.0818 27.9665C80.064 39.7006 76.3691 52.3831 75.2842 60.4796L75.3477 60.334C82.2198 43.4342 99.8775 38.9768 106.097 40.522C117.09 43.242 116.914 56.0532 111.86 63.8103L125.765 42.743L131.592 33.9227L131.597 33.9031L141.056 19.5818C142.556 17.36 143.368 14.7455 143.39 12.0649C143.39 5.94914 138.916 0.476562 130.773 0.476562C119.328 0.476562 108.126 4.46747 99.6762 12.1936C94.6376 16.7967 90.47 22.2692 87.0742 27.9666Z" fill="white"/>
<path d="M23.342 123.059L16.098 146.404H8.79499L1.21924 123.059H8.76554L12.4604 135.785C12.7115 136.536 12.9347 137.277 13.13 138.007L17.4448 123.059H23.342Z" fill="white"/>
<path d="M37.1931 146.764C33.9094 146.764 31.2328 145.675 29.1632 143.497C27.0936 141.319 26.0604 138.405 26.0635 134.757C26.0635 131.268 27.0523 128.386 29.0299 126.112C31.0076 123.838 33.7529 122.701 37.2659 122.702C40.5165 122.702 43.1647 123.774 45.2105 125.917C47.2564 128.059 48.2798 130.922 48.2808 134.503C48.2808 138.208 47.2476 141.178 45.1811 143.413C43.1146 145.648 40.4519 146.765 37.1931 146.764ZM37.159 141.462C38.3658 141.462 39.2353 140.934 39.7674 139.879C40.2995 138.824 40.5646 136.895 40.5625 134.091C40.5625 130.031 39.4735 128.002 37.2954 128.003C34.9458 128.003 33.7715 130.317 33.7725 134.946C33.7725 139.291 34.9013 141.463 37.159 141.462Z" fill="white"/>
<path d="M69.9121 140.676V146.41H53.5439V123.059H60.7105V140.676H69.9121Z" fill="white"/>
<path d="M87.5234 146.404L86.2045 141.804H79.9508L78.5559 146.404H72.7393L79.9461 123.059H87.5219L94.845 146.404H87.5234ZM81.169 136.707H84.946L83.0567 129.935L81.169 136.707Z" fill="white"/>
<path d="M120.008 146.404H112.065L108.656 137.477H106.396V146.404H99.231V123.059H111.425C114.112 123.059 116.201 123.689 117.693 124.949C119.185 126.21 119.929 127.872 119.925 129.935C119.95 131.173 119.669 132.398 119.105 133.5C118.556 134.533 117.45 135.443 115.787 136.228L120.008 146.404ZM106.394 132.483H109.457C110.357 132.483 111.08 132.295 111.627 131.919C112.173 131.543 112.447 130.99 112.448 130.259C112.448 128.767 111.53 128.021 109.694 128.02H106.393L106.394 132.483Z" fill="white"/>
<path d="M143.202 140.829V146.409H125.638V123.059H143.202V128.446H132.663V131.832H141.188V137.015H132.663V140.829H143.202Z" fill="white"/>
</svg>
